<svg width="940" height="551" viewBox="0 0 940 551" fill="none" xmlns="http://www.w3.org/2000/svg">
<g filter="url(#filter0_d)">
<path d="M84.284 237.61L155.028 308.37C164.314 317.658 175.339 325.027 187.473 330.054C199.607 335.081 212.613 337.668 225.747 337.668H236.777C249.911 337.668 262.917 340.255 275.051 345.282C287.185 350.309 298.21 357.678 307.496 366.966L383.214 442.702C392.5 451.99 403.525 459.359 415.659 464.386C427.793 469.413 440.799 472 453.933 472H675.604C703.111 472 725.409 449.701 725.409 422.195C725.409 408.988 720.163 396.322 710.826 386.982L657.991 334.134C650.632 326.774 650.634 314.84 657.994 307.481C661.528 303.948 666.321 301.963 671.319 301.963C681.727 301.963 690.165 293.525 690.165 283.117C690.165 278.12 688.18 273.327 684.647 269.792L576.571 161.691C567.285 152.402 556.26 145.034 544.125 140.007C531.991 134.98 518.985 132.393 505.851 132.393H393.837C380.973 132.393 368.234 129.859 356.349 124.935C344.464 120.011 333.666 112.795 324.57 103.697C315.474 94.599 304.675 87.382 292.79 82.4581C280.905 77.5342 268.166 74.9999 255.301 75L126.764 75C107.329 75 91.574 90.755 91.574 110.19C91.574 119.521 95.2804 128.471 101.878 135.07L119.474 152.669C129.189 162.386 129.187 178.139 119.47 187.854C114.804 192.518 108.477 195.139 101.88 195.139C88.138 195.139 77 206.279 77 220.019C76.9999 226.616 79.62 232.943 84.284 237.609V237.61Z" fill="black"/>
</g>
<path d="M84.284 237.61L155.028 308.37C164.314 317.658 175.339 325.027 187.473 330.054C199.607 335.081 212.613 337.668 225.747 337.668H236.777C249.911 337.668 262.917 340.255 275.051 345.282C287.185 350.309 298.21 357.678 307.496 366.966L383.214 442.702C392.5 451.99 403.525 459.359 415.659 464.386C427.793 469.413 440.799 472 453.933 472H675.604C703.111 472 725.409 449.701 725.409 422.195C725.409 408.988 720.163 396.322 710.826 386.982L657.991 334.134C650.632 326.774 650.634 314.84 657.994 307.481C661.528 303.948 666.321 301.963 671.319 301.963C681.727 301.963 690.165 293.525 690.165 283.117C690.165 278.12 688.18 273.327 684.647 269.792L576.571 161.691C567.285 152.402 556.26 145.034 544.125 140.007C531.991 134.98 518.985 132.393 505.851 132.393H393.837C380.973 132.393 368.234 129.859 356.349 124.935C344.464 120.011 333.666 112.795 324.57 103.697C315.474 94.599 304.675 87.382 292.79 82.4581C280.905 77.5342 268.166 74.9999 255.301 75L126.764 75C107.329 75 91.574 90.755 91.574 110.19C91.574 119.521 95.2804 128.471 101.878 135.07L119.474 152.669C129.189 162.386 129.187 178.139 119.47 187.854C114.804 192.518 108.477 195.139 101.88 195.139C88.138 195.139 77 206.279 77 220.019C76.9999 226.616 79.62 232.943 84.284 237.609V237.61Z" fill="#2D314D"/>
<path fill-rule="evenodd" clip-rule="evenodd" d="M298.284 238.61L369.028 309.37C378.314 318.658 389.339 326.027 401.473 331.054C413.607 336.081 426.613 338.668 439.747 338.668H450.777C463.911 338.668 476.917 341.255 489.051 346.282C501.185 351.309 512.21 358.678 521.496 367.966L597.214 443.702C606.5 452.99 617.525 460.359 629.659 465.386C641.793 470.413 654.799 473 667.933 473H889.604C917.111 473 939.409 450.701 939.409 423.195C939.409 409.988 934.164 397.322 924.826 387.982L871.991 335.134C864.632 327.774 864.634 315.84 871.994 308.481C875.528 304.948 880.321 302.963 885.319 302.963C895.727 302.963 904.165 294.525 904.165 284.117C904.165 279.12 902.18 274.327 898.647 270.792L790.571 162.691C781.285 153.402 770.26 146.034 758.125 141.007C745.991 135.98 732.985 133.393 719.851 133.393H607.837C594.973 133.393 582.234 130.859 570.349 125.935C558.464 121.011 547.666 113.795 538.57 104.697C529.474 95.599 518.675 88.382 506.79 83.4581C494.905 78.5342 482.166 75.9999 469.301 76H340.764C321.329 76 305.574 91.755 305.574 111.19C305.574 120.521 309.28 129.471 315.878 136.07L333.473 153.669C343.188 163.386 343.186 179.139 333.469 188.854C328.803 193.518 322.476 196.139 315.879 196.139C302.137 196.139 290.999 207.279 290.999 221.019C290.999 227.616 293.619 233.943 298.283 238.609L298.284 238.61Z" fill="url(#paint0_linear)"/>
<defs>
<filter id="filter0_d" x="0" y="0" width="802.409" height="551" filterUnits="userSpaceOnUse" color-interpolation-filters="sRGB">
<feFlood flood-opacity="0" result="BackgroundImageFix"/>
<feColorMatrix in="SourceAlpha" type="matrix" values="0 0 0 0 0 0 0 0 0 0 0 0 0 0 0 0 0 0 127 0" result="hardAlpha"/>
<feOffset dy="2"/>
<feGaussianBlur stdDeviation="38.5"/>
<feColorMatrix type="matrix" values="0 0 0 0 0 0 0 0 0 0 0 0 0 0 0 0 0 0 0.0240111 0"/>
<feBlend mode="normal" in2="BackgroundImageFix" result="effect1_dropShadow"/>
<feBlend mode="normal" in="SourceGraphic" in2="effect1_dropShadow" result="shape"/>
</filter>
<linearGradient id="paint0_linear" x1="290.999" y1="219.472" x2="868.013" y2="480.734" gradientUnits="userSpaceOnUse">
<stop stop-color="#33D35E"/>
<stop offset="1" stop-color="#2AB6D9"/>
</linearGradient>
</defs>
</svg>
