<svg width="21" height="18" viewBox="0 0 21 18" fill="none" xmlns="http://www.w3.org/2000/svg">
<path d="M20.667 2.79705C19.918 3.12903 19.1235 3.34678 18.31 3.44305C19.1671 2.93067 19.8084 2.12375 20.114 1.17305C19.3084 1.65111 18.4271 1.98796 17.508 2.16905C17.1242 1.75932 16.6603 1.43284 16.1451 1.2099C15.6299 0.986956 15.0744 0.8723 14.513 0.873051C11.864 0.873051 9.91798 3.34505 10.516 5.91105C8.88455 5.82942 7.28852 5.40555 5.83154 4.66699C4.37457 3.92842 3.08923 2.89167 2.05899 1.62405C1.53473 2.52752 1.37424 3.59675 1.61015 4.61432C1.84606 5.6319 2.46066 6.52143 3.32899 7.10205C2.67735 7.08213 2.03993 6.90658 1.46999 6.59005C1.42499 8.49105 2.78699 10.2701 4.75999 10.6651C4.1557 10.8291 3.52193 10.8531 2.90699 10.7351C3.16888 11.5507 3.67933 12.264 4.36684 12.775C5.05435 13.2861 5.88448 13.5693 6.74099 13.5851C5.02115 14.9341 2.83623 15.5455 0.665985 15.2851C2.54227 16.4904 4.72587 17.1303 6.95599 17.128C14.574 17.128 18.878 10.6941 18.618 4.92305C19.4213 4.34217 20.1147 3.62295 20.666 2.79905L20.667 2.79705Z" fill="white"/>
</svg>
